<svg xmlns="http://www.w3.org/2000/svg" viewBox="0 0 24 24" height="24" width="24" id="React-Native-Logo--Streamline-Ultimate"><desc>React Native Logo Streamline Icon: https://streamlinehq.com</desc><defs></defs><title>react-native</title><path d="M0.5 12a11.5 4.5 0 1 0 23 0 11.5 4.5 0 1 0 -23 0" fill="none" stroke="#000000" stroke-linecap="round" stroke-linejoin="round" stroke-width="1"></path><path d="M6.2503048454 21.9589872981a11.5 4.5 -60 1 0 11.5 -19.918584287 11.5 4.5 -60 1 0 -11.5 19.918584287" fill="none" stroke="#000000" stroke-linecap="round" stroke-linejoin="round" stroke-width="1"></path><path d="M8.1031905284 14.2503048454a11.5 4.5 60 1 0 7.794228634 -4.5 11.5 4.5 60 1 0 -7.794228634 4.5" fill="none" stroke="#000000" stroke-linecap="round" stroke-linejoin="round" stroke-width="1"></path><path d="M10.5 12a1.5 1.5 0 1 0 3 0 1.5 1.5 0 1 0 -3 0" fill="none" stroke="#000000" stroke-linecap="round" stroke-linejoin="round" stroke-width="1"></path></svg>